<?xml version='1.0' encoding='utf8'?>
<svg class="toyplot-canvas-Canvas" xmlns:toyplot="http://www.sandia.gov/toyplot" xmlns:xlink="http://www.w3.org/1999/xlink" xmlns="http://www.w3.org/2000/svg" width="1000.0px" height="1455.0px" viewBox="0 0 1000.0 1455.0" preserveAspectRatio="xMidYMid meet" style="background-color:transparent;border-color:#292724;border-style:none;border-width:1.0;fill:rgb(16.1%,15.3%,14.1%);fill-opacity:1.0;font-family:Helvetica;font-size:12px;opacity:1.0;stroke:rgb(16.1%,15.3%,14.1%);stroke-opacity:1.0;stroke-width:1.0" id="t101d3fdcd1c049efb7343a1c375ad132"><g class="toyplot-coordinates-Cartesian" id="t62d3f4b18bc544fa8a6bd92895f2abff"><clipPath id="te93a97fe82ab45d282ecaa1e0c156377"><rect x="30.0" y="30.0" width="940.0" height="1395.0" /></clipPath><g clip-path="url(#te93a97fe82ab45d282ecaa1e0c156377)"><g class="toytree-mark-Toytree" id="tfe9e28f3248941bdbcb4fc7ec8304844"><g class="toytree-Edges" style="fill:none;stroke:rgb(14.9%,14.9%,14.9%);stroke-linecap:round;stroke-opacity:1;stroke-width:2"><path d="M 51.4 101.3 L 51.4 163.6 L 81.6 163.6" id="171,170" /><path d="M 81.6 163.6 L 81.6 116.5 L 122.2 116.5" id="170,169" /><path d="M 81.6 163.6 L 81.6 210.8 L 118.8 210.8" id="170,168" /><path d="M 122.2 116.5 L 122.2 101.0 L 151.0 101.0" id="169,167" /><path d="M 122.2 116.5 L 122.2 132.0 L 214.8 132.0" id="169,166" /><path d="M 118.8 210.8 L 118.8 162.9 L 162.8 162.9" id="168,165" /><path d="M 118.8 210.8 L 118.8 258.6 L 142.8 258.6" id="168,164" /><path d="M 142.8 258.6 L 142.8 209.3 L 165.4 209.3" id="164,163" /><path d="M 142.8 258.6 L 142.8 307.9 L 162.9 307.9" id="164,162" /><path d="M 165.4 209.3 L 165.4 193.8 L 213.1 193.8" id="163,161" /><path d="M 165.4 209.3 L 165.4 224.8 L 211.0 224.8" id="163,160" /><path d="M 162.9 307.9 L 162.9 367.7 L 189.1 367.7" id="162,159" /><path d="M 189.1 367.7 L 189.1 290.0 L 200.2 290.0" id="159,158" /><path d="M 189.1 367.7 L 189.1 445.4 L 202.9 445.4" id="159,157" /><path d="M 200.2 290.0 L 200.2 271.2 L 252.2 271.2" id="158,156" /><path d="M 200.2 290.0 L 200.2 308.9 L 235.1 308.9" id="158,155" /><path d="M 202.9 445.4 L 202.9 383.3 L 250.8 383.3" id="157,154" /><path d="M 202.9 445.4 L 202.9 507.5 L 232.2 507.5" id="157,153" /><path d="M 235.1 308.9 L 235.1 323.4 L 254.7 323.4" id="155,152" /><path d="M 250.8 383.3 L 250.8 394.9 L 293.9 394.9" id="154,151" /><path d="M 232.2 507.5 L 232.2 596.9 L 264.0 596.9" id="153,150" /><path d="M 254.7 323.4 L 254.7 336.9 L 298.1 336.9" id="152,149" /><path d="M 264.0 596.9 L 264.0 458.7 L 298.5 458.7" id="150,148" /><path d="M 264.0 596.9 L 264.0 735.1 L 306.1 735.1" id="150,147" /><path d="M 298.1 336.9 L 298.1 348.5 L 320.6 348.5" id="149,146" /><path d="M 298.5 458.7 L 298.5 441.3 L 325.7 441.3" id="148,145" /><path d="M 298.5 458.7 L 298.5 476.1 L 319.1 476.1" id="148,144" /><path d="M 306.1 735.1 L 306.1 598.9 L 346.1 598.9" id="147,143" /><path d="M 306.1 735.1 L 306.1 871.2 L 330.3 871.2" id="147,142" /><path d="M 319.1 476.1 L 319.1 487.7 L 350.6 487.7" id="144,141" /><path d="M 346.1 598.9 L 346.1 528.3 L 369.2 528.3" id="143,140" /><path d="M 346.1 598.9 L 346.1 669.5 L 369.0 669.5" id="143,139" /><path d="M 330.3 871.2 L 330.3 968.5 L 344.7 968.5" id="142,138" /><path d="M 369.2 528.3 L 369.2 545.7 L 405.9 545.7" id="140,137" /><path d="M 369.0 669.5 L 369.0 623.1 L 396.3 623.1" id="139,136" /><path d="M 369.0 669.5 L 369.0 715.9 L 397.4 715.9" id="139,135" /><path d="M 344.7 968.5 L 344.7 828.8 L 361.6 828.8" id="138,134" /><path d="M 344.7 968.5 L 344.7 1108.3 L 374.8 1108.3" id="138,133" /><path d="M 405.9 545.7 L 405.9 565.1 L 431.3 565.1" id="137,132" /><path d="M 396.3 623.1 L 396.3 642.4 L 419.8 642.4" id="136,131" /><path d="M 397.4 715.9 L 397.4 692.7 L 439.0 692.7" id="135,130" /><path d="M 397.4 715.9 L 397.4 739.1 L 427.1 739.1" id="135,129" /><path d="M 361.6 828.8 L 361.6 801.0 L 398.0 801.0" id="134,128" /><path d="M 361.6 828.8 L 361.6 856.6 L 392.3 856.6" id="134,127" /><path d="M 374.8 1108.3 L 374.8 996.5 L 389.9 996.5" id="133,126" /><path d="M 374.8 1108.3 L 374.8 1220.0 L 405.4 1220.0" id="133,125" /><path d="M 431.3 565.1 L 431.3 549.6 L 497.7 549.6" id="132,124" /><path d="M 431.3 565.1 L 431.3 580.6 L 468.5 580.6" id="132,123" /><path d="M 419.8 642.4 L 419.8 627.0 L 478.4 627.0" id="131,122" /><path d="M 419.8 642.4 L 419.8 657.9 L 456.2 657.9" id="131,121" /><path d="M 439.0 692.7 L 439.0 704.3 L 480.3 704.3" id="130,120" /><path d="M 427.1 739.1 L 427.1 750.7 L 456.5 750.7" id="129,119" /><path d="M 398.0 801.0 L 398.0 812.6 L 422.4 812.6" id="128,118" /><path d="M 392.3 856.6 L 392.3 877.3 L 425.5 877.3" id="127,117" /><path d="M 389.9 996.5 L 389.9 955.7 L 432.7 955.7" id="126,116" /><path d="M 389.9 996.5 L 389.9 1037.3 L 415.4 1037.3" id="126,115" /><path d="M 405.4 1220.0 L 405.4 1170.3 L 437.2 1170.3" id="125,114" /><path d="M 405.4 1220.0 L 405.4 1269.7 L 426.1 1269.7" id="125,113" /><path d="M 425.5 877.3 L 425.5 859.0 L 447.5 859.0" id="117,112" /><path d="M 425.5 877.3 L 425.5 895.7 L 440.4 895.7" id="117,111" /><path d="M 432.7 955.7 L 432.7 967.3 L 505.0 967.3" id="116,110" /><path d="M 415.4 1037.3 L 415.4 1002.1 L 471.6 1002.1" id="115,109" /><path d="M 415.4 1037.3 L 415.4 1072.6 L 447.3 1072.6" id="115,108" /><path d="M 437.2 1170.3 L 437.2 1152.9 L 532.7 1152.9" id="114,107" /><path d="M 437.2 1170.3 L 437.2 1187.7 L 462.8 1187.7" id="114,106" /><path d="M 426.1 1269.7 L 426.1 1234.1 L 482.7 1234.1" id="113,105" /><path d="M 426.1 1269.7 L 426.1 1305.4 L 447.1 1305.4" id="113,104" /><path d="M 440.4 895.7 L 440.4 909.3 L 479.1 909.3" id="111,103" /><path d="M 471.6 1002.1 L 471.6 1013.7 L 523.4 1013.7" id="109,102" /><path d="M 447.3 1072.6 L 447.3 1048.5 L 487.0 1048.5" id="108,101" /><path d="M 447.3 1072.6 L 447.3 1096.8 L 462.8 1096.8" id="108,100" /><path d="M 462.8 1187.7 L 462.8 1199.3 L 509.0 1199.3" id="106,99" /><path d="M 482.7 1234.1 L 482.7 1245.7 L 525.4 1245.7" id="105,98" /><path d="M 447.1 1305.4 L 447.1 1280.5 L 474.9 1280.5" id="104,97" /><path d="M 447.1 1305.4 L 447.1 1330.3 L 489.7 1330.3" id="104,96" /><path d="M 479.1 909.3 L 479.1 920.9 L 501.9 920.9" id="103,95" /><path d="M 487.0 1048.5 L 487.0 1060.1 L 518.9 1060.1" id="101,94" /><path d="M 462.8 1096.8 L 462.8 1110.3 L 487.5 1110.3" id="100,93" /><path d="M 474.9 1280.5 L 474.9 1292.1 L 545.1 1292.1" id="97,92" /><path d="M 489.7 1330.3 L 489.7 1345.3 L 539.9 1345.3" id="96,91" /><path d="M 487.5 1110.3 L 487.5 1121.9 L 537.0 1121.9" id="93,90" /><path d="M 539.9 1345.3 L 539.9 1359.8 L 569.6 1359.8" id="91,89" /><path d="M 569.6 1359.8 L 569.6 1373.3 L 607.7 1373.3" id="89,88" /><path d="M 607.7 1373.3 L 607.7 1384.9 L 661.7 1384.9" id="88,87" /><path d="M 51.4 101.3 L 51.4 62.4 L 225.3 62.4" id="171,86" /><path d="M 51.4 101.3 L 51.4 77.8 L 197.4 77.8" id="171,85" /><path d="M 151.0 101.0 L 151.0 93.3 L 276.7 93.3" id="167,84" /><path d="M 151.0 101.0 L 151.0 108.8 L 285.9 108.8" id="167,83" /><path d="M 214.8 132.0 L 214.8 124.2 L 276.9 124.2" id="166,82" /><path d="M 214.8 132.0 L 214.8 139.7 L 262.0 139.7" id="166,81" /><path d="M 162.8 162.9 L 162.8 155.2 L 266.5 155.2" id="165,80" /><path d="M 162.8 162.9 L 162.8 170.6 L 261.0 170.6" id="165,79" /><path d="M 213.1 193.8 L 213.1 186.1 L 351.0 186.1" id="161,78" /><path d="M 213.1 193.8 L 213.1 201.6 L 364.0 201.6" id="161,77" /><path d="M 211.0 224.8 L 211.0 217.1 L 374.3 217.1" id="160,76" /><path d="M 211.0 224.8 L 211.0 232.5 L 363.9 232.5" id="160,75" /><path d="M 162.9 307.9 L 162.9 248.0 L 337.9 248.0" id="162,74" /><path d="M 252.2 271.2 L 252.2 263.5 L 387.6 263.5" id="156,73" /><path d="M 252.2 271.2 L 252.2 278.9 L 364.2 278.9" id="156,72" /><path d="M 235.1 308.9 L 235.1 294.4 L 366.3 294.4" id="155,71" /><path d="M 254.7 323.4 L 254.7 309.9 L 376.7 309.9" id="152,70" /><path d="M 298.1 336.9 L 298.1 325.3 L 423.4 325.3" id="149,69" /><path d="M 320.6 348.5 L 320.6 340.8 L 439.4 340.8" id="146,68" /><path d="M 320.6 348.5 L 320.6 356.3 L 434.6 356.3" id="146,67" /><path d="M 250.8 383.3 L 250.8 371.7 L 381.4 371.7" id="154,66" /><path d="M 293.9 394.9 L 293.9 387.2 L 400.0 387.2" id="151,65" /><path d="M 293.9 394.9 L 293.9 402.7 L 391.7 402.7" id="151,64" /><path d="M 232.2 507.5 L 232.2 418.1 L 390.5 418.1" id="153,63" /><path d="M 325.7 441.3 L 325.7 433.6 L 442.7 433.6" id="145,62" /><path d="M 325.7 441.3 L 325.7 449.1 L 431.7 449.1" id="145,61" /><path d="M 319.1 476.1 L 319.1 464.5 L 470.4 464.5" id="144,60" /><path d="M 350.6 487.7 L 350.6 480.0 L 469.3 480.0" id="141,59" /><path d="M 350.6 487.7 L 350.6 495.5 L 454.8 495.5" id="141,58" /><path d="M 369.2 528.3 L 369.2 510.9 L 486.1 510.9" id="140,57" /><path d="M 405.9 545.7 L 405.9 526.4 L 521.7 526.4" id="137,56" /><path d="M 497.7 549.6 L 497.7 541.9 L 542.4 541.9" id="124,55" /><path d="M 497.7 549.6 L 497.7 557.4 L 552.7 557.4" id="124,54" /><path d="M 468.5 580.6 L 468.5 572.8 L 544.6 572.8" id="123,53" /><path d="M 468.5 580.6 L 468.5 588.3 L 556.3 588.3" id="123,52" /><path d="M 396.3 623.1 L 396.3 603.8 L 486.7 603.8" id="136,51" /><path d="M 478.4 627.0 L 478.4 619.2 L 600.7 619.2" id="122,50" /><path d="M 478.4 627.0 L 478.4 634.7 L 579.1 634.7" id="122,49" /><path d="M 456.2 657.9 L 456.2 650.2 L 579.8 650.2" id="121,48" /><path d="M 456.2 657.9 L 456.2 665.6 L 559.7 665.6" id="121,47" /><path d="M 439.0 692.7 L 439.0 681.1 L 569.5 681.1" id="130,46" /><path d="M 480.3 704.3 L 480.3 696.6 L 559.7 696.6" id="120,45" /><path d="M 480.3 704.3 L 480.3 712.0 L 572.7 712.0" id="120,44" /><path d="M 427.1 739.1 L 427.1 727.5 L 533.4 727.5" id="129,43" /><path d="M 456.5 750.7 L 456.5 743.0 L 540.6 743.0" id="119,42" /><path d="M 456.5 750.7 L 456.5 758.4 L 540.1 758.4" id="119,41" /><path d="M 330.3 871.2 L 330.3 773.9 L 444.3 773.9" id="142,40" /><path d="M 398.0 801.0 L 398.0 789.4 L 488.4 789.4" id="128,39" /><path d="M 422.4 812.6 L 422.4 804.8 L 466.3 804.8" id="118,38" /><path d="M 422.4 812.6 L 422.4 820.3 L 489.4 820.3" id="118,37" /><path d="M 392.3 856.6 L 392.3 835.8 L 486.3 835.8" id="127,36" /><path d="M 447.5 859.0 L 447.5 851.2 L 531.2 851.2" id="112,35" /><path d="M 447.5 859.0 L 447.5 866.7 L 537.9 866.7" id="112,34" /><path d="M 440.4 895.7 L 440.4 882.2 L 556.7 882.2" id="111,33" /><path d="M 479.1 909.3 L 479.1 897.6 L 524.0 897.6" id="103,32" /><path d="M 501.9 920.9 L 501.9 913.1 L 533.7 913.1" id="95,31" /><path d="M 501.9 920.9 L 501.9 928.6 L 549.5 928.6" id="95,30" /><path d="M 432.7 955.7 L 432.7 944.1 L 585.2 944.1" id="116,29" /><path d="M 505.0 967.3 L 505.0 959.5 L 608.7 959.5" id="110,28" /><path d="M 505.0 967.3 L 505.0 975.0 L 568.2 975.0" id="110,27" /><path d="M 471.6 1002.1 L 471.6 990.5 L 538.9 990.5" id="109,26" /><path d="M 523.4 1013.7 L 523.4 1005.9 L 598.6 1005.9" id="102,25" /><path d="M 523.4 1013.7 L 523.4 1021.4 L 564.3 1021.4" id="102,24" /><path d="M 487.0 1048.5 L 487.0 1036.9 L 605.4 1036.9" id="101,23" /><path d="M 518.9 1060.1 L 518.9 1052.3 L 565.3 1052.3" id="94,22" /><path d="M 518.9 1060.1 L 518.9 1067.8 L 598.4 1067.8" id="94,21" /><path d="M 462.8 1096.8 L 462.8 1083.3 L 597.9 1083.3" id="100,20" /><path d="M 487.5 1110.3 L 487.5 1098.7 L 571.1 1098.7" id="93,19" /><path d="M 537.0 1121.9 L 537.0 1114.2 L 553.2 1114.2" id="90,18" /><path d="M 537.0 1121.9 L 537.0 1129.7 L 568.1 1129.7" id="90,17" /><path d="M 532.7 1152.9 L 532.7 1145.1 L 596.6 1145.1" id="107,16" /><path d="M 532.7 1152.9 L 532.7 1160.6 L 593.5 1160.6" id="107,15" /><path d="M 462.8 1187.7 L 462.8 1176.1 L 598.5 1176.1" id="106,14" /><path d="M 509.0 1199.3 L 509.0 1191.5 L 650.7 1191.5" id="99,13" /><path d="M 509.0 1199.3 L 509.0 1207.0 L 626.3 1207.0" id="99,12" /><path d="M 482.7 1234.1 L 482.7 1222.5 L 614.4 1222.5" id="105,11" /><path d="M 525.4 1245.7 L 525.4 1237.9 L 600.5 1237.9" id="98,10" /><path d="M 525.4 1245.7 L 525.4 1253.4 L 612.5 1253.4" id="98,9" /><path d="M 474.9 1280.5 L 474.9 1268.9 L 617.0 1268.9" id="97,8" /><path d="M 545.1 1292.1 L 545.1 1284.4 L 646.6 1284.4" id="92,7" /><path d="M 545.1 1292.1 L 545.1 1299.8 L 607.3 1299.8" id="92,6" /><path d="M 489.7 1330.3 L 489.7 1315.3 L 617.2 1315.3" id="96,5" /><path d="M 539.9 1345.3 L 539.9 1330.8 L 630.0 1330.8" id="91,4" /><path d="M 569.6 1359.8 L 569.6 1346.2 L 680.0 1346.2" id="89,3" /><path d="M 607.7 1373.3 L 607.7 1361.7 L 691.7 1361.7" id="88,2" /><path d="M 661.7 1384.9 L 661.7 1377.2 L 693.5 1377.2" id="87,1" /><path d="M 661.7 1384.9 L 661.7 1392.6 L 686.6 1392.6" id="87,0" /></g><g class="toytree-AlignEdges" style="stroke:rgb(66.3%,66.3%,66.3%);stroke-dasharray:2, 4;stroke-linecap:round;stroke-opacity:1.0;stroke-width:2"><path d="M 693.5 1392.6 L 686.6 1392.6" /><path d="M 693.5 1377.2 L 693.5 1377.2" /><path d="M 693.5 1361.7 L 691.7 1361.7" /><path d="M 693.5 1346.2 L 680.0 1346.2" /><path d="M 693.5 1330.8 L 630.0 1330.8" /><path d="M 693.5 1315.3 L 617.2 1315.3" /><path d="M 693.5 1299.8 L 607.3 1299.8" /><path d="M 693.5 1284.4 L 646.6 1284.4" /><path d="M 693.5 1268.9 L 617.0 1268.9" /><path d="M 693.5 1253.4 L 612.5 1253.4" /><path d="M 693.5 1237.9 L 600.5 1237.9" /><path d="M 693.5 1222.5 L 614.4 1222.5" /><path d="M 693.5 1207.0 L 626.3 1207.0" /><path d="M 693.5 1191.5 L 650.7 1191.5" /><path d="M 693.5 1176.1 L 598.5 1176.1" /><path d="M 693.5 1160.6 L 593.5 1160.6" /><path d="M 693.5 1145.1 L 596.6 1145.1" /><path d="M 693.5 1129.7 L 568.1 1129.7" /><path d="M 693.5 1114.2 L 553.2 1114.2" /><path d="M 693.5 1098.7 L 571.1 1098.7" /><path d="M 693.5 1083.3 L 597.9 1083.3" /><path d="M 693.5 1067.8 L 598.4 1067.8" /><path d="M 693.5 1052.3 L 565.3 1052.3" /><path d="M 693.5 1036.9 L 605.4 1036.9" /><path d="M 693.5 1021.4 L 564.3 1021.4" /><path d="M 693.5 1005.9 L 598.6 1005.9" /><path d="M 693.5 990.5 L 538.9 990.5" /><path d="M 693.5 975.0 L 568.2 975.0" /><path d="M 693.5 959.5 L 608.7 959.5" /><path d="M 693.5 944.1 L 585.2 944.1" /><path d="M 693.5 928.6 L 549.5 928.6" /><path d="M 693.5 913.1 L 533.7 913.1" /><path d="M 693.5 897.6 L 524.0 897.6" /><path d="M 693.5 882.2 L 556.7 882.2" /><path d="M 693.5 866.7 L 537.9 866.7" /><path d="M 693.5 851.2 L 531.2 851.2" /><path d="M 693.5 835.8 L 486.3 835.8" /><path d="M 693.5 820.3 L 489.4 820.3" /><path d="M 693.5 804.8 L 466.3 804.8" /><path d="M 693.5 789.4 L 488.4 789.4" /><path d="M 693.5 773.9 L 444.3 773.9" /><path d="M 693.5 758.4 L 540.1 758.4" /><path d="M 693.5 743.0 L 540.6 743.0" /><path d="M 693.5 727.5 L 533.4 727.5" /><path d="M 693.5 712.0 L 572.7 712.0" /><path d="M 693.5 696.6 L 559.7 696.6" /><path d="M 693.5 681.1 L 569.5 681.1" /><path d="M 693.5 665.6 L 559.7 665.6" /><path d="M 693.5 650.2 L 579.8 650.2" /><path d="M 693.5 634.7 L 579.1 634.7" /><path d="M 693.5 619.2 L 600.7 619.2" /><path d="M 693.5 603.8 L 486.7 603.8" /><path d="M 693.5 588.3 L 556.3 588.3" /><path d="M 693.5 572.8 L 544.6 572.8" /><path d="M 693.5 557.4 L 552.7 557.4" /><path d="M 693.5 541.9 L 542.4 541.9" /><path d="M 693.5 526.4 L 521.7 526.4" /><path d="M 693.5 510.9 L 486.1 510.9" /><path d="M 693.5 495.5 L 454.8 495.5" /><path d="M 693.5 480.0 L 469.3 480.0" /><path d="M 693.5 464.5 L 470.4 464.5" /><path d="M 693.5 449.1 L 431.7 449.1" /><path d="M 693.5 433.6 L 442.7 433.6" /><path d="M 693.5 418.1 L 390.5 418.1" /><path d="M 693.5 402.7 L 391.7 402.7" /><path d="M 693.5 387.2 L 400.0 387.2" /><path d="M 693.5 371.7 L 381.4 371.7" /><path d="M 693.5 356.3 L 434.6 356.3" /><path d="M 693.5 340.8 L 439.4 340.8" /><path d="M 693.5 325.3 L 423.4 325.3" /><path d="M 693.5 309.9 L 376.7 309.9" /><path d="M 693.5 294.4 L 366.3 294.4" /><path d="M 693.5 278.9 L 364.2 278.9" /><path d="M 693.5 263.5 L 387.6 263.5" /><path d="M 693.5 248.0 L 337.9 248.0" /><path d="M 693.5 232.5 L 363.9 232.5" /><path d="M 693.5 217.1 L 374.3 217.1" /><path d="M 693.5 201.6 L 364.0 201.6" /><path d="M 693.5 186.1 L 351.0 186.1" /><path d="M 693.5 170.6 L 261.0 170.6" /><path d="M 693.5 155.2 L 266.5 155.2" /><path d="M 693.5 139.7 L 262.0 139.7" /><path d="M 693.5 124.2 L 276.9 124.2" /><path d="M 693.5 108.8 L 285.9 108.8" /><path d="M 693.5 93.3 L 276.7 93.3" /><path d="M 693.5 77.8 L 197.4 77.8" /><path d="M 693.5 62.4 L 225.3 62.4" /></g><g class="toytree-TipLabels" style="fill:rgb(14.9%,14.9%,14.9%);fill-opacity:1.0;font-family:helvetica;font-size:11px;font-weight:normal;stroke:none;white-space:pre"><g transform="translate(693.49,1392.63)rotate(0)"><a href="https://glottolog.org/resource/languoid/id/rong1268#############"><text x="15.00" y="2.81" style="" fill="#0000ff">S54Ronga - Ronga [rong1268#############]</text></a></g><g transform="translate(693.49,1377.16)rotate(0)"><a href="https://glottolog.org/resource/languoid/id/tson1249#############"><text x="15.00" y="2.81" style="" fill="#0000ff">S53Tsonga - Tsonga [tson1249#############]</text></a></g><g transform="translate(693.49,1361.69)rotate(0)"><a href="https://glottolog.org/resource/languoid/id/zulu1248#############"><text x="15.00" y="2.81" style="" fill="#0000ff">S42Zulu - Zulu [zulu1248#############]</text></a></g><g transform="translate(693.49,1346.23)rotate(0)"><a href="https://glottolog.org/resource/languoid/id/tswa1253#############"><text x="15.00" y="2.81" style="" fill="#0000ff">S31dKhala - Tswana [tswa1253#############]</text></a></g><g transform="translate(693.49,1330.76)rotate(0)"><a href="https://glottolog.org/resource/languoid/id/vend1245#############"><text x="15.00" y="2.81" style="" fill="#0000ff">S21Venda - Venda [vend1245#############]</text></a></g><g transform="translate(693.49,1315.29)rotate(0)"><a href="https://glottolog.org/resource/languoid/id/shon1251#############"><text x="15.00" y="2.81" style="" fill="#0000ff">S10Shona - Shona [shon1251#############]</text></a></g><g transform="translate(693.49,1299.82)rotate(0)"><a href="https://glottolog.org/resource/languoid/id/nucl1396#############"><text x="15.00" y="2.81" style="" fill="#0000ff">N44Sena - Sena [nucl1396#############]</text></a></g><g transform="translate(693.49,1284.35)rotate(0)"><a href="https://glottolog.org/resource/languoid/id/nyan1308#############"><text x="15.00" y="2.81" style="" fill="#0000ff">N31aNyanj - Nyanja [nyan1308#############]</text></a></g><g transform="translate(693.49,1268.88)rotate(0)"><a href="https://glottolog.org/resource/languoid/id/makh1264#############"><text x="15.00" y="2.81" style="" fill="#0000ff">P31Makwa - Makhuwa [makh1264#############]</text></a></g><g transform="translate(693.49,1253.42)rotate(0)"><a href="https://glottolog.org/resource/languoid/id/swah1253#############"><text x="15.00" y="2.81" style="" fill="#0000ff">G42Swahil - Swahili [swah1253#############]</text></a></g><g transform="translate(693.49,1237.95)rotate(0)"><a href="https://glottolog.org/resource/languoid/id/poko1261#############"><text x="15.00" y="2.81" style="" fill="#0000ff">E71Pokomo - Pokomo [poko1261#############]</text></a></g><g transform="translate(693.49,1222.48)rotate(0)"><a href="https://glottolog.org/resource/languoid/id/sham1280#############"><text x="15.00" y="2.81" style="" fill="#0000ff">G23Shamba - Shambala [sham1280#############]</text></a></g><g transform="translate(693.49,1207.01)rotate(0)"><a href="https://glottolog.org/resource/languoid/id/nyak1260#############"><text x="15.00" y="2.81" style="" fill="#0000ff">M31Nyakyu - Nyakyusa-Ngonde [nyak1260#############]</text></a></g><g transform="translate(693.49,1191.54)rotate(0)"><a href="https://glottolog.org/resource/languoid/id/nucl1379#############"><text x="15.00" y="2.81" style="" fill="#0000ff">G65Kinga - Kinga [nucl1379#############]</text></a></g><g transform="translate(693.49,1176.08)rotate(0)"><a href="https://glottolog.org/resource/languoid/id/yaoo1241#############"><text x="15.00" y="2.81" style="" fill="#0000ff">P21Yao1 - Yao [yaoo1241#############]</text></a></g><g transform="translate(693.49,1160.61)rotate(0)"><a href="https://glottolog.org/resource/languoid/id/saam1283#############"><text x="15.00" y="2.81" style="" fill="#0000ff">J34Samia - Saamia [saam1283#############]</text></a></g><g transform="translate(693.49,1145.14)rotate(0)"><a href="https://glottolog.org/resource/languoid/id/buku1249#############"><text x="15.00" y="2.81" style="" fill="#0000ff">J31cBukus - Bukusu [buku1249#############]</text></a></g><g transform="translate(693.49,1129.67)rotate(0)"><a href="https://glottolog.org/resource/languoid/id/rund1242#############"><text x="15.00" y="2.81" style="" fill="#0000ff">J62Rundi - Rundi [rund1242#############]</text></a></g><g transform="translate(693.49,1114.20)rotate(0)"><a href="https://glottolog.org/resource/languoid/id/kiny1244#############"><text x="15.00" y="2.81" style="" fill="#0000ff">J61Rwanda - Kinyarwanda [kiny1244#############]</text></a></g><g transform="translate(693.49,1098.74)rotate(0)"><a href="https://glottolog.org/resource/languoid/id/shii1238#############"><text x="15.00" y="2.81" style="" fill="#0000ff">J53Shi - Shi [shii1238#############]</text></a></g><g transform="translate(693.49,1083.27)rotate(0)"><a href="https://glottolog.org/resource/languoid/id/yira1240#############"><text x="15.00" y="2.81" style="" fill="#0000ff">J42Nande - Yira [yira1240#############]</text></a></g><g transform="translate(693.49,1067.80)rotate(0)"><a href="https://glottolog.org/resource/languoid/id/haya1250#############"><text x="15.00" y="2.81" style="" fill="#0000ff">J22HHaya - Haya [haya1250#############]</text></a></g><g transform="translate(693.49,1052.33)rotate(0)"><a href="https://glottolog.org/resource/languoid/id/hima1248#############"><text x="15.00" y="2.81" style="" fill="#0000ff">J13Hima - Hima [hima1248#############]</text></a></g><g transform="translate(693.49,1036.86)rotate(0)"><a href="https://glottolog.org/resource/languoid/id/gand1255#############"><text x="15.00" y="2.81" style="" fill="#0000ff">J15Ganda - Ganda [gand1255#############]</text></a></g><g transform="translate(693.49,1021.39)rotate(0)"><a href="https://glottolog.org/resource/languoid/id/nyam1276#############"><text x="15.00" y="2.81" style="" fill="#0000ff">F22Nyamwe - Nyamwezi [nyam1276#############]</text></a></g><g transform="translate(693.49,1005.93)rotate(0)"><a href="https://glottolog.org/resource/languoid/id/suku1261#############"><text x="15.00" y="2.81" style="" fill="#0000ff">F21Sukuma - Sukuma [suku1261#############]</text></a></g><g transform="translate(693.49,990.46)rotate(0)"><a href="https://glottolog.org/resource/languoid/id/sumb1240#############"><text x="15.00" y="2.81" style="" fill="#0000ff">F23Sumbwa - Sumbwa [sumb1240#############]</text></a></g><g transform="translate(693.49,974.99)rotate(0)"><a href="https://glottolog.org/resource/languoid/id/kamb1297#############"><text x="15.00" y="2.81" style="" fill="#0000ff">E55Kamba - Kamba (Kenya) [kamb1297#############]</text></a></g><g transform="translate(693.49,959.52)rotate(0)"><a href="https://glottolog.org/resource/languoid/id/kiku1240#############"><text x="15.00" y="2.81" style="" fill="#0000ff">E51Gikuyu - Kikuyu [kiku1240#############]</text></a></g><g transform="translate(693.49,944.05)rotate(0)"><a href="https://glottolog.org/resource/languoid/id/moch1256#############"><text x="15.00" y="2.81" style="" fill="#0000ff">E62Caga1 - Mochi [moch1256#############]</text></a></g><g transform="translate(693.49,928.59)rotate(0)"><a href="https://glottolog.org/resource/languoid/id/kaon1241#############"><text x="15.00" y="2.81" style="" fill="#0000ff">L42Kaonde - Kaonde [kaon1241#############]</text></a></g><g transform="translate(693.49,913.12)rotate(0)"><a href="https://glottolog.org/resource/languoid/id/sang1331#############"><text x="15.00" y="2.81" style="" fill="#0000ff">L35Sanga - Sanga (Democratic Republic of Congo) [sang1331#############]</text></a></g><g transform="translate(693.49,897.65)rotate(0)"><a href="https://glottolog.org/resource/languoid/id/luba1250#############"><text x="15.00" y="2.81" style="" fill="#0000ff">L33LubaS - Luba-Katanga [luba1250#############]</text></a></g><g transform="translate(693.49,882.18)rotate(0)"><a href="https://glottolog.org/resource/languoid/id/song1303#############"><text x="15.00" y="2.81" style="" fill="#0000ff">L23Songye - Songe [song1303#############]</text></a></g><g transform="translate(693.49,866.71)rotate(0)"><a href="https://glottolog.org/resource/languoid/id/luba1249#############"><text x="15.00" y="2.81" style="" fill="#0000ff">L31LubaK - Luba-Lulua [luba1249#############]</text></a></g><g transform="translate(693.49,851.25)rotate(0)"><a href="https://glottolog.org/resource/languoid/id/bang1350#############"><text x="15.00" y="2.81" style="" fill="#0000ff">L27Bangub - Bangubangu [bang1350#############]</text></a></g><g transform="translate(693.49,835.78)rotate(0)"><a href="https://glottolog.org/resource/languoid/id/holo1240#############"><text x="15.00" y="2.81" style="" fill="#0000ff">D28Holoho - Holoholo [holo1240#############]</text></a></g><g transform="translate(693.49,820.31)rotate(0)"><a href="https://glottolog.org/resource/languoid/id/lamb1271#############"><text x="15.00" y="2.81" style="" fill="#0000ff">M54Lamba - Lamba [lamb1271#############]</text></a></g><g transform="translate(693.49,804.84)rotate(0)"><a href="https://glottolog.org/resource/languoid/id/bemb1257#############"><text x="15.00" y="2.81" style="" fill="#0000ff">M42Bemba - Bemba (Zambia) [bemb1257#############]</text></a></g><g transform="translate(693.49,789.37)rotate(0)"><a href="https://glottolog.org/resource/languoid/id/shil1264#############"><text x="15.00" y="2.81" style="" fill="#0000ff">M41Tabwa - Shila [shil1264#############]</text></a></g><g transform="translate(693.49,773.90)rotate(0)"><a href="https://glottolog.org/resource/languoid/id/tong1318#############"><text x="15.00" y="2.81" style="" fill="#0000ff">M64Tonga - Tonga (Zambia) [tong1318#############]</text></a></g><g transform="translate(693.49,758.44)rotate(0)"><a href="https://glottolog.org/resource/languoid/id/kete1252#############"><text x="15.00" y="2.81" style="" fill="#0000ff">L21Kete1 - Kete [kete1252#############]</text></a></g><g transform="translate(693.49,742.97)rotate(0)"><a href="https://glottolog.org/resource/languoid/id/ruun1238#############"><text x="15.00" y="2.81" style="" fill="#0000ff">K23Ruund - Ruund [ruun1238#############]</text></a></g><g transform="translate(693.49,727.50)rotate(0)"><a href="https://glottolog.org/resource/languoid/id/lozi1239#############"><text x="15.00" y="2.81" style="" fill="#0000ff">K21Salamp - Lozi [lozi1239#############]</text></a></g><g transform="translate(693.49,712.03)rotate(0)"><a href="https://glottolog.org/resource/languoid/id/luva1239#############"><text x="15.00" y="2.81" style="" fill="#0000ff">K14Lwena - Luvale [luva1239#############]</text></a></g><g transform="translate(693.49,696.56)rotate(0)"><a href="https://glottolog.org/resource/languoid/id/chok1245#############"><text x="15.00" y="2.81" style="" fill="#0000ff">K11Ciokwe - Chokwe [chok1245#############]</text></a></g><g transform="translate(693.49,681.10)rotate(0)"><a href="https://glottolog.org/resource/languoid/id/lund1266#############"><text x="15.00" y="2.81" style="" fill="#0000ff">K22Lunda - Lunda [lund1266#############]</text></a></g><g transform="translate(693.49,665.63)rotate(0)"><a href="https://glottolog.org/resource/languoid/id/kwes1244#############"><text x="15.00" y="2.81" style="" fill="#0000ff">K53Kwezo - Kwese [kwes1244#############]</text></a></g><g transform="translate(693.49,650.16)rotate(0)"><a href="https://glottolog.org/resource/languoid/id/mbal1257#############"><text x="15.00" y="2.81" style="" fill="#0000ff">K51Mbala - Mbala [mbal1257#############]</text></a></g><g transform="translate(693.49,634.69)rotate(0)"><a href="https://glottolog.org/resource/languoid/id/yaka1269#############"><text x="15.00" y="2.81" style="" fill="#0000ff">H31Yaka1 - Yaka-Pelende-Lonzo [yaka1269#############]</text></a></g><g transform="translate(693.49,619.22)rotate(0)"><a href="https://glottolog.org/resource/languoid/id/yomb1244#############"><text x="15.00" y="2.81" style="" fill="#0000ff">H12bYombe - Yombe [yomb1244#############]</text></a></g><g transform="translate(693.49,603.75)rotate(0)"><a href="https://glottolog.org/resource/languoid/id/holu1245#############"><text x="15.00" y="2.81" style="" fill="#0000ff">K50Holu - Holu [holu1245#############]</text></a></g><g transform="translate(693.49,588.29)rotate(0)"><a href="https://glottolog.org/resource/languoid/id/here1253#############"><text x="15.00" y="2.81" style="" fill="#0000ff">R31Herero - Herero [here1253#############]</text></a></g><g transform="translate(693.49,572.82)rotate(0)"><a href="https://glottolog.org/resource/languoid/id/kuan1247#############"><text x="15.00" y="2.81" style="" fill="#0000ff">R21Kwanya - Kuanyama [kuan1247#############]</text></a></g><g transform="translate(693.49,557.35)rotate(0)"><a href="https://glottolog.org/resource/languoid/id/diri1252#############"><text x="15.00" y="2.81" style="" fill="#0000ff">K39Dcirik - Diriku-Shambyu [diri1252#############]</text></a></g><g transform="translate(693.49,541.88)rotate(0)"><a href="https://glottolog.org/resource/languoid/id/kwan1273#############"><text x="15.00" y="2.81" style="" fill="#0000ff">K33Kwanga - Kwangali [kwan1273#############]</text></a></g><g transform="translate(693.49,526.41)rotate(0)"><a href="https://glottolog.org/resource/languoid/id/umbu1257#############"><text x="15.00" y="2.81" style="" fill="#0000ff">R11Umbund - Umbundu [umbu1257#############]</text></a></g><g transform="translate(693.49,510.95)rotate(0)"><a href="https://glottolog.org/resource/languoid/id/luya1241#############"><text x="15.00" y="2.81" style="" fill="#0000ff">K31Luyi - Luyi [luya1241#############]</text></a></g><g transform="translate(693.49,495.48)rotate(0)"><a href="https://glottolog.org/resource/languoid/id/lega1249#############"><text x="15.00" y="2.81" style="" fill="#0000ff">D25Lega2 - Lega-Shabunda [lega1249#############]</text></a></g><g transform="translate(693.49,480.01)rotate(0)"><a href="https://glottolog.org/resource/languoid/id/mitu1240#############"><text x="15.00" y="2.81" style="" fill="#0000ff">D13Mituku - Mituku [mitu1240#############]</text></a></g><g transform="translate(693.49,464.54)rotate(0)"><a href="https://glottolog.org/resource/languoid/id/nyan1304#############"><text x="15.00" y="2.81" style="" fill="#0000ff">D43Nyanga - Nyanga [nyan1304#############]</text></a></g><g transform="translate(693.49,449.07)rotate(0)"><a href="https://glottolog.org/resource/languoid/id/zimb1251#############"><text x="15.00" y="2.81" style="" fill="#0000ff">D26Binja - Zimba [zimb1251#############]</text></a></g><g transform="translate(693.49,433.61)rotate(0)"><a href="https://glottolog.org/resource/languoid/id/enya1249#############"><text x="15.00" y="2.81" style="" fill="#0000ff">D14Enya1 - Enya-Kindu [enya1249#############]</text></a></g><g transform="translate(693.49,418.14)rotate(0)"><a href="https://glottolog.org/resource/languoid/id/beem1239#############"><text x="15.00" y="2.81" style="" fill="#0000ff">H11Bembe - Beembe [beem1239#############]</text></a></g><g transform="translate(693.49,402.67)rotate(0)"><a href="https://glottolog.org/resource/languoid/id/wuum1238#############"><text x="15.00" y="2.81" style="" fill="#0000ff">B78FumuW - Wuumu [wuum1238#############]</text></a></g><g transform="translate(693.49,387.20)rotate(0)"><a href="https://glottolog.org/resource/languoid/id/teke1278#############"><text x="15.00" y="2.81" style="" fill="#0000ff">B74Boma - Teke-Eboo-Nzikou [teke1278#############]</text></a></g><g transform="translate(693.49,371.73)rotate(0)"><a href="https://glottolog.org/resource/languoid/id/yans1239#############"><text x="15.00" y="2.81" style="" fill="#0000ff">B85Yanz1 - Yansi [yans1239#############]</text></a></g><g transform="translate(693.49,356.26)rotate(0)"><a href="https://glottolog.org/resource/languoid/id/ombo1238#############"><text x="15.00" y="2.81" style="" fill="#0000ff">C76Ombo - Ombo [ombo1238#############]</text></a></g><g transform="translate(693.49,340.80)rotate(0)"><a href="https://glottolog.org/resource/languoid/id/tete1250#############"><text x="15.00" y="2.81" style="" fill="#0000ff">C71Tetela - Tetela [tete1250#############]</text></a></g><g transform="translate(693.49,325.33)rotate(0)"><a href="https://glottolog.org/resource/languoid/id/mong1338#############"><text x="15.00" y="2.81" style="" fill="#0000ff">C61Mongo - Mongo [mong1338#############]</text></a></g><g transform="translate(693.49,309.86)rotate(0)"><a href="https://glottolog.org/resource/languoid/id/bush1247#############"><text x="15.00" y="2.81" style="" fill="#0000ff">C83Bushon - Bushoong [bush1247#############]</text></a></g><g transform="translate(693.49,294.39)rotate(0)"><a href="https://glottolog.org/resource/languoid/id/saka1287#############"><text x="15.00" y="2.81" style="" fill="#0000ff">C34Sakata - Sakata [saka1287#############]</text></a></g><g transform="translate(693.49,278.92)rotate(0)"><a href="https://glottolog.org/resource/languoid/id/bang1354#############"><text x="15.00" y="2.81" style="" fill="#0000ff">C32Bobang - Bobangi [bang1354#############]</text></a></g><g transform="translate(693.49,263.46)rotate(0)"><a href="https://glottolog.org/resource/languoid/id/koyo1242#############"><text x="15.00" y="2.81" style="" fill="#0000ff">C24Koyo1 - Koyo [koyo1242#############]</text></a></g><g transform="translate(693.49,247.99)rotate(0)"><a href="https://glottolog.org/resource/languoid/id/ngom1268#############"><text x="15.00" y="2.81" style="" fill="#0000ff">C41Ngombe - Ngombe (Democratic Republic of Congo) [ngom1268#############]</text></a></g><g transform="translate(693.49,232.52)rotate(0)"><a href="https://glottolog.org/resource/languoid/id/bodo1272#############"><text x="15.00" y="2.81" style="" fill="#0000ff">D35Bodo1 - Bodo (Central African Republic) [bodo1272#############]</text></a></g><g transform="translate(693.49,217.05)rotate(0)"><a href="https://glottolog.org/resource/languoid/id/leng1258#############"><text x="15.00" y="2.81" style="" fill="#0000ff">D12Lengol - Lengola [leng1258#############]</text></a></g><g transform="translate(693.49,201.58)rotate(0)"><a href="https://glottolog.org/resource/languoid/id/komo1260#############"><text x="15.00" y="2.81" style="" fill="#0000ff">D37Kumu1 - Komo (Democratic Republic of Congo) [komo1260#############]</text></a></g><g transform="translate(693.49,186.12)rotate(0)"><a href="https://glottolog.org/resource/languoid/id/ngel1238#############"><text x="15.00" y="2.81" style="" fill="#0000ff">C45Angba - Ngelima [ngel1238#############]</text></a></g><g transform="translate(693.49,170.65)rotate(0)"><a href="https://glottolog.org/resource/languoid/id/kele1255#############"><text x="15.00" y="2.81" style="" fill="#0000ff">C55Kele2 - Kele-Foma [kele1255#############]</text></a></g><g transform="translate(693.49,155.18)rotate(0)"><a href="https://glottolog.org/resource/languoid/id/mbes1238#############"><text x="15.00" y="2.81" style="" fill="#0000ff">C52So4B - Mbesa [mbes1238#############]</text></a></g><g transform="translate(693.49,139.71)rotate(0)"><a href="https://glottolog.org/resource/languoid/id/bulu1251#############"><text x="15.00" y="2.81" style="" fill="#0000ff">A74Bulu - Bulu (Cameroon) [bulu1251#############]</text></a></g><g transform="translate(693.49,124.24)rotate(0)"><a href="https://glottolog.org/resource/languoid/id/ewon1239#############"><text x="15.00" y="2.81" style="" fill="#0000ff">A72Ewondo - Ewondo [ewon1239#############]</text></a></g><g transform="translate(693.49,108.77)rotate(0)"><a href="https://glottolog.org/resource/languoid/id/basa1284#############"><text x="15.00" y="2.81" style="" fill="#0000ff">A43aBasaa - Basa (Cameroon) [basa1284#############]</text></a></g><g transform="translate(693.49,93.31)rotate(0)"><a href="https://glottolog.org/resource/languoid/id/dual1243#############"><text x="15.00" y="2.81" style="" fill="#0000ff">A24Duala - Duala [dual1243#############]</text></a></g><g transform="translate(693.49,77.84)rotate(0)"><a href="https://glottolog.org/resource/languoid/id/bafi1243#############"><text x="15.00" y="2.81" style="" fill="#0000ff">A53Rikpa - Bafia [bafi1243#############]</text></a></g><g transform="translate(693.49,62.37)rotate(0)"><a href="https://glottolog.org/resource/languoid/id/tune1261#############"><text x="15.00" y="2.81" style="" fill="#0000ff">A44Nen - Tunen [tune1261#############]</text></a></g></g></g></g><g class="toyplot-coordinates-Axis" id="t28016d41f2df4ecc8bec2251945319a2" transform="translate(50.0,1405.0)translate(0,20.0)"><line x1="1.4268026462432193" y1="0" x2="643.487993455732" y2="0" style="" /><g><line x1="643.487993455732" y1="0" x2="643.487993455732" y2="-5" style="" /><line x1="572.1478611435665" y1="0" x2="572.1478611435665" y2="-5" style="" /><line x1="500.80772883140105" y1="0" x2="500.80772883140105" y2="-5" style="" /><line x1="429.46759651923566" y1="0" x2="429.46759651923566" y2="-5" style="" /><line x1="358.12746420707015" y1="0" x2="358.12746420707015" y2="-5" style="" /><line x1="286.78733189490475" y1="0" x2="286.78733189490475" y2="-5" style="" /><line x1="215.44719958273933" y1="0" x2="215.44719958273933" y2="-5" style="" /><line x1="144.10706727057385" y1="0" x2="144.10706727057385" y2="-5" style="" /><line x1="72.76693495840843" y1="0" x2="72.76693495840843" y2="-5" style="" /><line x1="1.4268026462430305" y1="0" x2="1.4268026462430305" y2="-5" style="" /></g><g><g transform="translate(643.487993455732,6)"><text x="-9.729999999999999" y="8.555" style="fill:rgb(16.1%,15.3%,14.1%);fill-opacity:1.0;font-family:helvetica;font-size:10.0px;font-weight:normal;stroke:none;vertical-align:baseline;white-space:pre">0.00</text></g><g transform="translate(572.1478611435665,6)"><text x="-9.729999999999999" y="8.555" style="fill:rgb(16.1%,15.3%,14.1%);fill-opacity:1.0;font-family:helvetica;font-size:10.0px;font-weight:normal;stroke:none;vertical-align:baseline;white-space:pre">0.02</text></g><g transform="translate(500.80772883140105,6)"><text x="-9.729999999999999" y="8.555" style="fill:rgb(16.1%,15.3%,14.1%);fill-opacity:1.0;font-family:helvetica;font-size:10.0px;font-weight:normal;stroke:none;vertical-align:baseline;white-space:pre">0.04</text></g><g transform="translate(429.46759651923566,6)"><text x="-9.729999999999999" y="8.555" style="fill:rgb(16.1%,15.3%,14.1%);fill-opacity:1.0;font-family:helvetica;font-size:10.0px;font-weight:normal;stroke:none;vertical-align:baseline;white-space:pre">0.06</text></g><g transform="translate(358.12746420707015,6)"><text x="-9.729999999999999" y="8.555" style="fill:rgb(16.1%,15.3%,14.1%);fill-opacity:1.0;font-family:helvetica;font-size:10.0px;font-weight:normal;stroke:none;vertical-align:baseline;white-space:pre">0.08</text></g><g transform="translate(286.78733189490475,6)"><text x="-9.729999999999999" y="8.555" style="fill:rgb(16.1%,15.3%,14.1%);fill-opacity:1.0;font-family:helvetica;font-size:10.0px;font-weight:normal;stroke:none;vertical-align:baseline;white-space:pre">0.10</text></g><g transform="translate(215.44719958273933,6)"><text x="-9.729999999999999" y="8.555" style="fill:rgb(16.1%,15.3%,14.1%);fill-opacity:1.0;font-family:helvetica;font-size:10.0px;font-weight:normal;stroke:none;vertical-align:baseline;white-space:pre">0.13</text></g><g transform="translate(144.10706727057385,6)"><text x="-9.729999999999999" y="8.555" style="fill:rgb(16.1%,15.3%,14.1%);fill-opacity:1.0;font-family:helvetica;font-size:10.0px;font-weight:normal;stroke:none;vertical-align:baseline;white-space:pre">0.15</text></g><g transform="translate(72.76693495840843,6)"><text x="-9.729999999999999" y="8.555" style="fill:rgb(16.1%,15.3%,14.1%);fill-opacity:1.0;font-family:helvetica;font-size:10.0px;font-weight:normal;stroke:none;vertical-align:baseline;white-space:pre">0.17</text></g><g transform="translate(1.4268026462430305,6)"><text x="-9.729999999999999" y="8.555" style="fill:rgb(16.1%,15.3%,14.1%);fill-opacity:1.0;font-family:helvetica;font-size:10.0px;font-weight:normal;stroke:none;vertical-align:baseline;white-space:pre">0.19</text></g></g><g class="toyplot-coordinates-Axis-coordinates" style="visibility:hidden" transform=""><line x1="0" x2="0" y1="-3.0" y2="4.5" style="stroke:rgb(43.9%,50.2%,56.5%);stroke-opacity:1.0;stroke-width:1.0" /><text x="0" y="-6" style="alignment-baseline:alphabetic;fill:rgb(43.9%,50.2%,56.5%);fill-opacity:1.0;font-size:10px;font-weight:normal;stroke:none;text-anchor:middle" /></g></g><g transform="translate(500.0,42.0)"><text x="-291.361" y="-4.823" style="fill:rgb(16.1%,15.3%,14.1%);fill-opacity:1.0;font-family:helvetica;font-size:14.0px;font-weight:bold;stroke:none;vertical-align:baseline;white-space:pre">Summary tree of a Bayesian analysis of the Bantu family with branches in substitutions</text></g></g></svg>